<?xml version="1.0" encoding="utf-8"?>
<!-- Generator: Adobe Illustrator 16.0.0, SVG Export Plug-In . SVG Version: 6.00 Build 0)  -->
<!DOCTYPE svg PUBLIC "-//W3C//DTD SVG 1.1//EN" "http://www.w3.org/Graphics/SVG/1.1/DTD/svg11.dtd">
<svg version="1.1" id="Layer_1" xmlns="http://www.w3.org/2000/svg" xmlns:xlink="http://www.w3.org/1999/xlink" x="0px" y="0px"
	 width="612px" height="612px" viewBox="0 0 612 612" enable-background="new 0 0 612 612" xml:space="preserve">
<path fill="#EB4141" d="M113.265,299.132c-0.06,1.155-0.12,2.311-0.18,3.466C111.79,301.374,111.883,300.22,113.265,299.132z"/>
<path fill="#EB4141" d="M117.222,343.8c-0.483,2.039-1.829,3.277-3.719,4.018C113.66,345.476,114.891,344.128,117.222,343.8z"/>
<path fill="#EB4141" d="M112.614,336.79c0.805,0.463,1.61,0.926,2.416,1.387c-0.67,0.832-1.495,1.608-2.458,0.654
	C112.238,338.501,112.58,337.488,112.614,336.79z"/>
<path fill="#EB4141" d="M567.063,433.298c-0.232-0.468-0.464-0.934-0.695-1.398c0.688-0.146,1.371-0.291,2.058-0.441
	C567.971,432.064,567.517,432.681,567.063,433.298z"/>
<polygon fill="#EB4141" points="73.442,437.448 72.93,437.606 73.029,437.109 "/>
<polygon fill="#E5C19A" points="189.047,275.824 206.087,285.978 262.459,304.288 331.437,321.691 368.902,336.046 377.305,341.3 
	383.958,354.256 410.219,376.313 436.828,390.663 512.81,422.883 523.314,422.883 526.465,414.83 528.566,408.177 535.919,408.527 
	541.521,408.177 546.423,403.624 548.874,395.571 548.874,391.02 559.028,394.171 568.132,387.459 568.132,380.165 566.381,372.812 
	576.885,367.56 576.885,359.507 573.733,349.353 562.88,339.197 490.401,308.805 495.302,304.288 517.361,294.031 525.765,281.076 
	525.064,267.771 517.711,262.168 506.507,268.471 491.102,277.224 476.745,280.726 457.488,280.726 432.616,275.824 
	419.322,275.473 413.02,275.824 232.348,224.353 221.143,222.252 202.585,226.454 189.047,236.608 183.328,245.711 179.775,255.516 
	181.927,266.72 "/>
<polygon fill="#FFFFFF" points="194.882,229.137 161.036,216.3 162.203,206.963 159.868,195.058 155.9,186.421 145.629,186.421 
	137.459,188.988 128.589,211.63 121.353,217.467 112.716,229.137 114.351,240.81 119.953,249.913 134.191,254.114 143.528,250.146 
	147.73,244.544 150.531,240.576 173.174,247.345 179.775,249.913 182.064,249.2 "/>
<path d="M583.251,360.075c-0.336-2.521-1.849-6.442-3.474-8.908c-4.146-6.218-13.109-13.67-21.737-17.982
	c-7.618-3.866-22.465-9.804-58.711-23.642l-3.193-1.232l3.193-0.896c8.964-2.521,17.086-6.723,22.297-11.652
	c4.146-3.923,6.555-7.844,8.236-13.166c0.728-2.465,0.839-3.417,0.839-7.338c0-6.443-0.952-9.58-3.864-12.718
	c-3.529-3.81-9.188-3.977-16.471-0.561c-3.698,1.792-6.443,3.474-14.006,8.852c-3.642,2.576-7.339,4.986-8.403,5.378
	c-3.474,1.401-7.171,1.848-13.839,1.681c-6.498-0.169-8.571-0.449-23.248-2.802c-5.434-0.841-11.988-1.792-14.454-2.073
	c-6.05-0.728-14.174-0.728-18.319,0l-3.249,0.561l-15.238-3.921c-75.294-19.272-137.591-37.479-166.555-48.572
	c-7.507-2.913-9.02-3.193-13.781-3.193c-7.003,0.056-14.566,2.408-21.177,6.611l-1.793,1.12l-5.322-1.848
	c-14.118-4.93-24.93-8.74-24.986-8.853c-0.055-0.055,0.28-1.176,0.785-2.465c1.232-3.361,1.457-8.516,0.504-12.492
	c-2.465-10.309-8.011-16.471-16.246-18.096c-2.746-0.561-4.314-0.617-6.891-0.224c-7.394,1.231-13.109,5.602-16.47,12.66
	c-2.129,4.537-2.913,7.731-3.025,12.773l-0.112,4.426l-3.193,1.625c-2.521,1.232-3.81,2.128-5.882,4.089
	c-4.089,3.866-5.994,7.562-6.723,13.165c-0.672,5.155,0.784,12.381,3.474,17.031c1.625,2.746,5.546,6.667,7.955,7.955
	c6.106,3.193,12.997,3.698,19.664,1.401c3.417-1.177,5.77-2.577,8.459-5.155c1.905-1.792,4.425-4.986,4.818-6.162
	c0.112-0.28,3.809,0.896,10.869,3.417c5.882,2.073,11.316,3.978,11.989,4.202l1.288,0.448l0.057,4.089
	c0,5.547,1.064,9.637,3.473,13.726c0.784,1.232,1.008,1.96,0.784,2.072c-0.16,0.107-1.482,0.313-2.91,0.43
	c0.826,0.953,1.613,1.935,2.2,3.055c0.352,0.673,0.625,1.368,0.822,2.075c0.348,0.634,0.667,1.301,0.943,2.022
	c2.405,2.072,4.554,4.362,6.536,6.994c1.148,1.524,2.173,3.135,3.299,4.677c0.021,0.024,0.04,0.046,0.063,0.07
	c0.26,0.306,0.528,0.602,0.806,0.89c0.583,0.588,1.178,1.163,1.777,1.733c1.021,0.973,2.074,1.919,3.124,2.87
	c0.999-0.059,2.016,0.047,3.015,0.357c14.234,4.405,28.229,9.732,42.795,12.968c5.347,1.19,10.714,2.354,16.032,3.666
	c2.851,0.701,5.704,1.621,8.312,2.985c0.83,0.436,1.576,0.917,2.257,1.445c1.085-0.447,2.264-0.647,3.49-0.51
	c11.437,1.271,22.647,3.693,33.942,5.813c5.353,1.006,10.727,1.907,16.065,2.981c2.603,0.524,5.192,1.073,7.742,1.826
	c0.327,0.097,0.654,0.195,0.983,0.293c0.507-0.335,1.003-0.672,1.479-1.012l2.521-1.794l7.451,2.467
	c19.832,6.609,29.86,11.933,31.71,16.862c1.96,5.155,4.761,9.299,9.971,14.677c4.146,4.259,8.908,8.405,14.454,12.494
	c16.976,12.605,44.818,27.506,64.818,34.733c8.795,3.194,36.247,13.558,39.776,15.015c8.011,3.361,11.708,4.146,15.351,3.474
	c3.865-0.729,6.218-2.297,8.403-5.547c1.567-2.354,2.576-5.49,2.576-7.898c0-1.456,0.112-1.738,0.504-1.568
	c2.185,0.839,4.874,1.287,7.73,1.287c2.802,0.057,3.418-0.056,4.987-0.785c2.353-1.063,3.698-2.296,5.154-4.536
	c1.793-2.746,2.632-5.602,2.688-8.852c0.057-2.521,0.057-2.688,0.673-2.521c2.129,0.615,5.098,0.896,7.396,0.784
	c2.185-0.113,3.025-0.337,4.762-1.177c6.274-3.137,9.636-12.044,7.228-19.271l-0.785-2.241l1.176-0.168
	c3.138-0.504,7.396-3.754,8.964-6.891C582.858,365.565,583.53,362.035,583.251,360.075z M180.729,243.659l-1.008,2.128l-5.378-1.904
	c-2.969-1.009-9.355-3.249-14.173-4.985c-9.244-3.25-9.972-3.361-11.709-2.242c-0.448,0.28-1.008,1.177-1.344,2.018
	c-1.905,5.434-4.986,8.628-9.917,10.363c-2.465,0.841-6.834,1.177-9.188,0.616c-7.171-1.68-11.484-8.179-11.148-17.031
	c0.112-2.97,0.225-3.641,1.121-5.547c1.344-2.801,3.698-5.153,6.947-6.777l2.465-1.289l1.569,1.793
	c3.697,4.202,12.829,8.851,17.647,9.075c1.905,0.057,2.185-0.112,1.792-1.288c-0.448-1.29-3.585-3.643-7.619-5.771
	c-3.249-1.681-3.641-2.017-4.706-3.642c-0.616-1.008-1.681-3.249-2.241-4.986c-0.953-2.745-1.065-3.585-1.065-6.498
	c0-3.866,0.561-6.331,2.241-9.804c2.577-5.378,6.835-8.18,12.494-8.18c2.128-0.055,2.801,0.057,4.481,0.897
	c3.585,1.681,6.219,5.602,7.395,11.093c1.064,4.706,0,9.243-2.745,11.933c-0.729,0.728-1.29,1.625-1.457,2.24
	c-0.28,1.345,0.336,3.193,1.289,3.922c0.392,0.336,7.843,3.137,16.583,6.162c8.683,3.025,15.91,5.603,15.966,5.658
	s-0.616,0.953-1.568,1.96C185.324,235.984,182.019,240.914,180.729,243.659z M540.842,406.012c-1.68,0.337-4.482-0.166-8.459-1.623
	c-1.569-0.562-8.739-3.979-16.022-7.62c-12.213-6.049-35.967-17.591-41.682-20.224c-1.288-0.616-2.464-1.176-2.521-1.232
	c-0.111-0.056,0.393-0.728,1.176-1.513c1.962-2.073,4.202-4.93,6.106-7.843c0.953-1.457,1.906-2.576,2.131-2.522
	c0.167,0.058,6.554,3.027,14.061,6.555c16.079,7.509,32.829,15.519,41.624,19.889l6.274,3.081l0.897,1.737
	C546.556,398.953,544.596,405.172,540.842,406.012z M564.932,386.517c-1.681,3.418-3.977,4.313-8.627,3.361
	c-2.97-0.615-8.853-2.969-9.581-3.754c-0.336-0.335-1.064-0.728-1.68-0.841c-0.616-0.111-6.219-2.688-12.438-5.657
	c-10.477-5.097-31.653-15.07-43.192-20.392l-4.987-2.297l1.232-3.249c1.064-3.026,2.521-8.405,3.025-11.204l0.168-1.233l1.009,0.448
	c0.617,0.112,7.34,3.137,15.015,6.611c22.295,9.971,34.957,15.741,42.688,19.495c3.979,1.904,8.684,3.978,10.42,4.594
	c4.314,1.568,4.65,1.735,5.994,3.584C566.5,379.289,566.781,382.707,564.932,386.517z M576.079,361.587
	c-0.168,2.521-1.288,4.314-3.361,5.322c-1.231,0.56-1.849,0.672-4.536,0.56c-4.203-0.167-7.957-1.456-17.647-6.106
	c-14.51-6.947-59.441-27.171-60.448-27.171c-0.505,0-0.561-0.505-0.785-4.2c-0.112-2.299-0.336-4.875-0.392-5.604
	c-0.225-1.399-0.28-1.287-1.736,3.529c-2.97,9.75-6.499,18.769-11.036,28.124c-5.268,10.869-9.636,17.928-16.64,26.947
	c-2.24,2.913-4.033,5.321-3.979,5.321c0.057,0.056,2.466-1.68,5.38-3.808l5.322-3.922l14.621,7.001
	c8.011,3.866,20.896,10.085,28.572,13.951l14.005,6.946l0.505,1.625c0.895,2.801,0.504,5.546-1.29,7.844
	c-1.289,1.68-2.464,2.128-5.209,1.961c-1.85-0.113-3.138-0.449-5.323-1.346c-4.145-1.681-26.331-10.084-37.254-14.117
	c-15.687-5.826-18.991-7.172-30.981-13.166c-27.786-13.894-48.066-28.066-57.03-39.887c-1.289-1.682-3.361-5.66-4.762-9.077
	c-0.784-1.849-4.089-5.209-7.115-7.171c-5.713-3.753-14.397-7.451-28.291-12.044c-13.949-4.65-23.697-7.395-60.337-17.031
	c-41.96-11.093-59.775-16.415-74.733-22.297c-15.07-5.994-22.073-10.7-25.042-16.863c-0.729-1.457-1.457-3.472-1.625-4.37
	c-0.561-2.633-0.392-6.947,0.28-9.859c2.521-10.531,12.437-21.121,23.809-25.435c3.81-1.456,7.171-2.016,11.261-1.905l3.697,0.112
	l7.283,2.578c30.868,11.708,101.176,32.044,174.734,50.588l9.075,2.296l2.97-0.616c2.353-0.504,4.145-0.615,9.188-0.561
	c6.891,0.057,8.852,0.225,24.259,2.689c13.892,2.241,17.758,2.633,24.369,2.688c6.274,0.056,9.354-0.392,13.612-1.849
	c3.081-1.007,4.259-1.735,10.868-6.498c9.637-6.947,14.679-9.635,18.601-9.972c1.793-0.111,2.073-0.056,2.8,0.672
	c1.794,1.794,2.466,8.292,1.289,12.773c-2.13,8.179-9.747,14.79-21.96,19.047c-7.619,2.69-13.613,3.698-26.163,4.707
	c-4.763,0.335-8.683,0.728-8.739,0.728c-0.056,0.056,5.154,2.016,11.541,4.369c34.454,12.661,65.209,24.762,75.237,29.524
	c9.86,4.706,18.824,12.213,21.905,18.375C576.079,359.458,576.136,359.851,576.079,361.587z"/>
<path d="M464.764,310.83c-4.537,2.801-10.42,5.658-14.174,6.779c-4.875,1.567-8.459,2.072-14.117,2.072
	c-7.396,0-10.309-0.505-28.235-4.762c-6.219-1.514-11.373-2.689-11.485-2.578c-0.112,0.113,8.516,5.322,12.438,7.564
	c4.481,2.521,14.174,6.106,17.759,6.667c0.841,0.112,1.513,0.336,1.513,0.448c0,0.447-6.443,7.898-14.679,16.975
	c-4.761,5.209-9.188,10.196-9.915,10.979l-1.232,1.401l1.121-0.785c5.041-3.474,13.725-9.748,16.413-11.932
	c3.923-3.139,11.317-10.478,13.726-13.728l1.793-2.296h1.904c8.74-0.056,18.208-3.921,24.37-10.084
	c1.849-1.793,4.931-5.883,6.387-8.459C468.797,308.477,468.236,308.758,464.764,310.83z"/>
<path fill="#690000" d="M216.808,373.912c-5.434,0.728-10.363,2.521-12.772,4.763c-4.426,4.088-1.064,8.683,8.292,11.147
	c3.025,0.785,3.641,0.841,10.084,0.841c6.442,0,7.115-0.056,10.027-0.841c5.659-1.513,8.796-3.417,9.917-5.882
	c0.84-1.905,0.393-3.418-1.569-5.211C236.584,374.809,226.276,372.734,216.808,373.912z"/>
<path fill="#690000" d="M336.863,327.244c-34.699-8.286-145.482-34.381-155.293-53.837c-2.598,0.403-2.617,0.365-3.56,0.436
	c-4.649,0.392-15.166,1.987-22,3.108c-24.93,4.146-44.538,10.7-56.639,18.88c-3.025,2.016-7.339,6.162-8.908,8.515
	c-3.809,5.658-3.529,11.988,0.673,17.535c0.616,0.84,1.064,1.625,1.008,1.793c-0.112,0.112-1.736,0.335-3.641,0.503
	c-8.179,0.506-19.271,2.298-27.843,4.428c-26.834,6.723-41.177,18.543-37.367,30.812c4.201,13.558,29.636,24.37,65.154,27.62
	c7.115,0.616,28.516,0.559,35.63-0.168c18.88-1.907,33.894-5.603,45.546-11.15c7.227-3.418,12.493-7.45,15.462-11.596
	c2.241-3.193,2.969-5.658,2.801-9.188l-0.112-2.745l3.25,0.224c12.997,0.897,30.028,1.009,45.882,0.226
	c42.072-2.017,79.958-11.133,97.156-23.401C334.062,329.236,335.639,328.111,336.863,327.244z"/>
</svg>
