<?xml version="1.0" encoding="utf-8"?>
<!-- Generator: Adobe Illustrator 16.0.0, SVG Export Plug-In . SVG Version: 6.00 Build 0)  -->
<!DOCTYPE svg PUBLIC "-//W3C//DTD SVG 1.1//EN" "http://www.w3.org/Graphics/SVG/1.1/DTD/svg11.dtd">
<svg version="1.1" id="Layer_1" xmlns="http://www.w3.org/2000/svg" xmlns:xlink="http://www.w3.org/1999/xlink" x="0px" y="0px"
	 width="612px" height="612px" viewBox="0 0 612 612" enable-background="new 0 0 612 612" xml:space="preserve">
<path fill="#EB4141" d="M108.066,286.063c-0.06,1.155-0.12,2.311-0.18,3.466C106.591,288.305,106.684,287.151,108.066,286.063z"/>
<path fill="#EB4141" d="M599.884,383.846c-2.484-0.843-3.664,3.096-6.877,1.512c-0.012-4.365,1.667-9.474-1.57-13.648
	c-3.953,0.289-2.021,9.63-7.729,5.182c-7.64-5.953-3.511-11.027,4.114-14.836c-2.208-0.731-3.026-1.041-3.865-1.272
	c-12.643-3.497-13.067-4.919-5.104-14.888c11.223-14.047,15.382-29.549,11.016-47.515c-1.648-6.784-10.272-11.532-5.885-20.011
	c0.035-0.068-1.166-1.017-1.88-1.199c-18.424-4.747-25.529-19.958-32.33-35.255c-6.818-15.343-8.184-32.147-12.255-48.23
	c-7.798-30.793-21.567-57.77-49.031-75.885c-1.224-0.806-2.835-1.644-3.318-2.847c-3.871-9.643-11.265-11.414-20.081-8.585
	c-4.936,1.585-6.134-0.327-7.21-4.454c-1.849-7.079-6.19-12.713-11.371-17.77c-11.814-11.531-26.954-16.981-41.776-23.057
	c-26.99-11.063-55.854-15.989-83.283-25.671c-38.761-13.678-77.439-12.843-115.771,2.201c-2.724,1.068-5.649,1.968-8.542,2.205
	c-23.159,1.89-43.73,10.515-62.294,24.077c-10.907,7.968-20.682,17.26-24.388,30.818c-1.298,4.75-3.558,7.536-7.533,10.111
	c-22.521,14.602-38.322,34.706-50.102,58.829c-6.351,13.003-3.989,26.717-7.258,39.825c-2.72,10.914-4.519,22.093-6.074,33.245
	c-0.755,5.407-2.183,10.161-4.961,14.907c-5.991,10.235-8.47,21.277-6.8,33.331c0.839,6.048,2.836,5.812,7.178,1.431
	c-0.053,16.094,2.448,30,11.623,42.377c2.815,3.797,2.53,9.545-4.622,11.354c-10.03,2.537-17.816,8.179-22.669,17.673
	c3.88,2.497,4.979-3.488,8.718-1.476c-2.527,8.88-2.096,18.36-5.062,27.521c-4.17,12.88-0.046,23.934,10.08,32.774
	c1.305,1.14,3.488,3.393,4.343,2.264c3.826-5.064,5.176-0.025,7.224,1.465c6.788,4.939,15.091,11.986,22.169,9.165
	c8.564-3.416,7.45,1.576,7.719,5.225c0.886,12.024,8.078,21.477,12.752,31.835c2.943,6.519,8.618,12.245,17.355,11.848
	c0-0.001,0.001-0.001,0.001-0.002c0.687,0.379,1.851,1.193,1.976,1.058c0.876-0.954,0.34-1.896-0.42-2.719
	c-0.374-2.308-0.748-4.614-1.122-6.92c-0.001-0.006,0-0.011-0.001-0.018c-0.002-0.013-0.005-0.024-0.008-0.037
	c-0.012-0.071-0.023-0.142-0.035-0.213c-0.009-0.006-0.016-0.012-0.025-0.017c-0.001-0.002-0.002-0.004-0.002-0.006
	c0.009,0.006,0.016,0.012,0.026,0.018c-0.194-1.163-0.391-2.329-0.586-3.493c0,0,0-0.001,0.001-0.001
	c0.127-3.671,0.01-7.312-1.404-10.784c-0.02-0.03-0.042-0.061-0.062-0.091c0-0.001,0-0.002,0-0.003
	c0.02,0.029,0.042,0.06,0.061,0.089c-0.199-2.964-0.396-5.926-0.596-8.89c0,0,0.001-0.001,0.001-0.001
	c0.043-11.09-0.033-22.183,0.263-33.267c0.043-1.62-1.727-6.466,3.609-4.11c2.224,4.936,5.853,8.45,10.77,10.664
	c4.726,4.575,10.833,5.951,16.961,7.046c15.999,2.86,31.946,1.017,47.844-1.025c12.355-1.589,21.256-8.405,27.567-18.972
	c7.28-12.186,10.93-25.534,13.171-39.411c3.623-22.429,3.724-22.441,26.88-21.135c0.888,0.051,1.777,0.223,2.662,0.193
	c5.052-0.164,7.467,1.883,7.621,7.303c0.282,9.873,2.935,19.422,6.301,28.588c8.514,23.195,21.129,42.094,49.108,43.635
	c13.935,0.769,27.89,1.536,41.797,0.401c9.121-0.743,18.305-2.198,25.837-8.302c0.001,0,0.002,0.001,0.003,0.001
	c14.787-8.173,20.377-21.487,21.008-37.576c-0.038-0.04-0.064-0.079-0.102-0.119c0.036,0.039,0.062,0.077,0.1,0.116
	c0.938-1.713,0.82-3.476,0.257-5.263c0.001-0.001,0.001-0.001,0.001-0.001c0.52-6.051,1.042-12.102,1.562-18.15l0.007-0.003
	c10.494,0.44,20.552-2.108,30.631-4.495c0.003,0.001,0.005,0.001,0.007,0.002c1.1-0.16,2.197-0.322,3.296-0.482
	c0.001-0.001,0.001-0.002,0.002-0.004c2.333,0.095,4.664,0.19,6.994,0.285c-0.133-0.327-0.266-0.633-0.4-0.919
	c0.135,0.287,0.27,0.595,0.402,0.923c2.332,4.67,6.026,8.269,10.389,10.728c6.107,3.44,8.679,6.676,3.899,13.538
	c-3.367,4.836-3.815,11.064-3.861,17.131c-0.104,14.058,10.753,23.036,15.752,34.713c0.17,0.396,0.991,0.515,1.513,0.756
	c2.396-2.03,1.711-6.501,6.022-7.354c4.702,7.231,5.583,15.585,6.014,25.129c5.727-4,8.463-8.468,10.787-13.243
	c6.739-13.853,7.635-28.494,5.58-43.457c-1.165-8.5-3.455-16.833-2.77-25.569c1.147-14.61,10.271-21.959,24.608-18.812
	c4.282,0.939,5.873-0.288,7.287-3.868c2.51-6.354,2.255-13.003,2.511-19.7c5.472,7.377,4.882,15.58,2.503,23.391
	c-1.794,5.89,2.284,7.576,5.341,9.736c4.239,2.996,5.502-1.852,7.229-4.004c6.371-7.937,9.383-17.15,8.74-27.609
	c4.501,8.543,4.277,17.363-0.092,24.804c-5.951,10.136-5.625,18.948-3.569,30.683c3.771,21.532-3.41,42.521-17.31,59.808
	c-7.866,9.777-13.279,19.891-15.964,32.155c-3.884,17.771-13.637,33.468-31.229,38.151c-15.925,4.239-21.353,13.812-25.202,27.216
	c-1.796,6.251-4.479,12.25-6.843,18.331c-1.194,3.071-2.496,6.209-1.812,9.485c1.17,5.611-2.356,15.322,2.411,16.133
	c7.375,1.252,14.246-5.075,17.303-12.811c1.608-4.078,3.814-4.184,7.472-3.755c23.976,2.807,31.809-3.439,33.524-26.385
	c3.584,0.164,1.301,5.786,5.415,5.756c4.15-7.578,5.142-15.714,4.539-24.097c-0.244-3.427,0.66-5.415,3.332-8.161
	c11.474-11.796,22.393-24.158,33.025-36.727c3.203-3.786,4.012-9.139,4.84-14.182c2.297-14.004-1.344-27.063-6.015-39.991
	c-0.232-0.468-0.464-0.934-0.695-1.399c0.688-0.146,1.371-0.291,2.058-0.441c4.948,0.814,7.211,5.671,11.648,8.296
	c1.666-5.878-1.692-10.167-2.933-14.757C590.126,405.27,604.536,390.749,599.884,383.846z M215.626,353.507
	c-0.441,16.806-4.126,32.901-12.372,47.794c-5.432,9.812-13.39,15.753-24.63,16.822c-18.59,1.771-37.257,4.541-55.388-2.832
	c0,0.002-0.001,0.003-0.002,0.004l-0.308,0.172c-0.081,0.011-0.153,0.012-0.228,0.015c-0.002,0-0.004-0.001-0.006-0.002
	c0.074-0.003,0.147-0.004,0.228-0.015c-1.376-0.999-2.748-2.001-4.122-3.001c0,0.001,0,0.001,0,0.002
	c-10.592-7.259-12.659-18.521-14.089-30.062c-1.056-8.512-1.959-17.041-3.039-25.549c-1.062-8.377,0.67-15.861,6.637-22.104
	c0.156-2.342,1.387-3.689,3.719-4.018c1.056-0.127,2.113-0.252,3.169-0.377c0-0.002,0.001-0.003,0.002-0.005
	c26.204-8.452,52.917-5.868,79.399-2.646C210.195,329.607,216.038,337.746,215.626,353.507z M243.518,339.371
	c-14.454,1.689-25.59-0.361-31.262-15.725c19.051-1.854,38.975-1.584,61.107-2c-3.622,3.396-6.578,4.859-7.288,7.049
	C262.2,340.659,252.88,338.275,243.518,339.371z M397.22,371.511c-0.016,0.019-0.028,0.037-0.044,0.056
	c-0.165,3.556-0.332,7.11-0.498,10.664c0.036,0.041,0.066,0.08,0.102,0.121c-0.035-0.041-0.066-0.082-0.104-0.123
	c-0.338,1.772-0.673,3.546-1.008,5.316c-0.027,0.056-0.04,0.111-0.042,0.168c-0.906,2.896-1.813,5.793-2.718,8.69
	c0.06,0.073,0.104,0.14,0.157,0.21c-0.054-0.071-0.1-0.138-0.159-0.212c-0.605,1.185-1.209,2.368-1.813,3.555
	c0.057-0.012,0.112-0.023,0.169-0.035c-0.001,0.001-0.003,0.002-0.004,0.003c-0.055,0.012-0.108,0.023-0.163,0.034
	c-2.339,2.852-4.678,5.703-7.014,8.556c-0.004,0.031-0.01,0.058-0.015,0.089c0,0-0.001,0-0.001,0.001
	c0.004-0.032,0.011-0.061,0.015-0.093c-1.779,1.295-3.556,2.59-5.333,3.883c-0.001-0.014-0.003-0.027-0.004-0.041
	c-23.795,9.948-48.314,7.003-72.762,3.811c-9.046-1.181-15.685-6.948-20.798-14.157c-11.107-15.666-16.858-33.298-17.511-52.419
	c-0.433-12.681,3.915-18.637,15.889-22.532c5.315-1.73,10.921-2.972,16.482-3.471c23.959-2.154,47.938-3.553,71.739,1.703
	c0.001-0.014,0.003-0.027,0.004-0.041c0.001,0,0.002,0,0.003,0c-0.001,0.015-0.003,0.028-0.004,0.043
	c0.463,0.361,0.984,0.52,1.568,0.473c0,0,0.001,0,0.001-0.001c3.636,1.58,7.27,3.159,10.904,4.738
	c-0.009-0.017-0.019-0.032-0.027-0.048l0.001,0.001c0.01,0.017,0.02,0.032,0.028,0.049c0.179,0.335,0.452,0.455,0.82,0.358
	c0.001,0,0.001,0,0.002,0c1.453,1.107,2.902,2.216,4.351,3.321c0.048,0.093,0.114,0.148,0.186,0.188
	c1.938,2.892,3.875,5.783,5.812,8.673l-0.002-0.001c0.439,1.785,0.873,3.569,1.312,5.356c0.094-0.111,0.177-0.221,0.261-0.329v0.003
	c-0.083,0.107-0.166,0.216-0.259,0.326c0.154,1.774,0.314,3.549,0.471,5.324c-0.019,0.068-0.018,0.142,0,0.219
	c-0.014,5.875-0.024,11.751-0.04,17.625c0.017-0.021,0.031-0.041,0.048-0.061C397.221,371.506,397.221,371.508,397.22,371.511z
	 M470.962,269.688c-4.985-2.384-9.622-5.5-15.334-8.833c0.488,13.996-4.733,24.385-15.188,32.172
	c-3.437,2.56-3.49,6.682-4.257,10.418c-2.756,13.473-0.227,26.513,3.266,39.473c-0.093,0.293-0.19,0.556-0.292,0.805
	c-0.001,0-0.003,0.001-0.004,0.002c0.102-0.251,0.2-0.515,0.293-0.809c-1.883,0.359-3.765,0.723-5.648,1.082
	c0.001,0.001,0.001,0.001,0.002,0.002c-2.255,0.288-4.509,0.576-6.766,0.864c0.131,0.535,0.333,1.142,0.344,1.677
	c-0.001,0-0.002,0-0.003,0.001c-0.01-0.536-0.213-1.145-0.344-1.681c-1.194,0.127-2.387,0.25-3.579,0.375
	c0,0.001,0.001,0.002,0.001,0.003c-2.07-0.122-4.175-0.537-6.207-0.315c-8.276,0.895-13.819-0.839-17.886-9.751
	c-4.314-9.457-14.134-13.933-24.397-16.157c-0.017,0.012-0.03,0.025-0.047,0.038c-0.001-0.001-0.002-0.001-0.003-0.002
	c0.017-0.013,0.03-0.026,0.047-0.038c-13.86-5.52-28.453-5.457-42.971-5.274c-37.047,0.471-74.093,1.17-111.135,1.89
	c-24.871,0.485-49.706,2.555-74.619,1.48c-4.379-0.187-8.811,0.871-13.219,1.354c0,0.001,0,0.003,0,0.004
	c-8.32,0.147-16.026,2.433-23.182,6.646c-0.67,0.83-1.495,1.605-2.458,0.652c-0.334-0.33,0.008-1.344,0.042-2.043
	c0.157-11.396,0.314-22.794,0.472-34.189c-1.295-1.225-1.202-2.378,0.18-3.466c1.678-22.48,6.644-44.455,10.665-66.548
	c7.064-38.822,32.803-65.065,68.31-70.005c11.986-1.667,24.232-0.588,36.336-2.001c7.288-0.851,7.194-3.325,3.217-8.057
	c-7.806-9.288-17.596-14.635-29.803-15.721c-8.227-0.732-16.615-0.553-24.546-3.462c-4.63-0.696-8.387-2.835-11.08-6.724
	c-0.302-0.398-0.604-0.795-0.905-1.194c0.67-0.043,1.342-0.088,2.012-0.139c3.31,1.596,6.621,3.198,9.931,4.803
	c8.536,0.966,17.061,2.034,25.609,2.878c17.077,1.684,31.873,7.215,40.101,23.709c1.422,2.85,3.363,3.888,6.299,3.793
	c3.259-0.105,6.528-0.031,9.778-0.254c15.816-1.086,18.679-6.373,10.007-20.041c-9.255-14.591-23.657-19.913-40.29-20.306
	c-10.648-0.252-21.385,0.571-31.762-2.77c-4.171-0.583-7.646-2.361-10.111-5.878c-1.187-1-3.864-1.895-2.421-3.52
	c1.239-1.396,2.79,0.884,3.907,2.078c2.835,1.376,5.669,2.754,8.503,4.133c10.218,2.612,20.646,1.756,31.014,1.867
	c11.7,0.125,23.123,1.503,33.453,7.614c10.234,6.056,17.11,14.74,19.27,26.506c0.985,5.367,2.959,7.452,8.241,5.247
	c0.269-0.111,0.59-0.092,0.868-0.19c6.809-2.382,17.593-0.741,19.452-8.108c2.419-9.575-1.898-19.72-8.614-27.801
	c-2.652-3.192-5.743-5.935-9.543-7.872c-1.51-0.77-3.931-1.518-4.562-2.997c-2.024-0.96-3.872-2.206-5.917-3.152
	c-0.523,0.192-1.137-0.198-1.785-0.669c-1.928-0.556-4.007-0.688-6.038-0.855c-6.886-0.19-13.771-0.382-20.657-0.571
	c-4.122,0.12-8.242,0.24-12.363,0.36c-11.08,2.248-21.222-0.05-30.526-6.834c10.073,2.317,20.182,3.927,30.491,3.477
	c3.7-0.329,7.426-1.403,11.049,0.396c6.642-3.285,13.464-2.537,20.302-1.447c0.206-0.024,0.419-0.032,0.647-0.001
	c3.177,0.439,6.716,0.25,9.71,1.562c2.787,1.222,5.232,3.121,8.123,4.104c0.135,0.046,0.254,0.106,0.37,0.168
	c1.265,0.378,2.592,1.359,3.683,2.027c0.003,0,0.006-0.002,0.009-0.002c0.213,0,0.348,0.113,0.421,0.258
	c11.6,6.62,18.972,16.327,20.815,29.846c0.891,6.539,1.773,11.901,11.007,7.275c7.34-3.674,15.694-5.338,23.619-7.832
	c25.255-7.948,49.489,1.685,62.291,24.744c1.635,2.946,6.244,5.718,6.51,6.426c3.51,9.438,16.807,10.684,17.07,23.391
	c0.676,32.507,18.763,53.739,47.461,66.933c1.027,0.474,2.349,0.718,2.115,2.342c-9.162,1.396-18.593-4.026-40.062-23.021
	c1.629,13.896,18.857,31.531,48.67,49.486C481.586,274.425,476.151,272.172,470.962,269.688z"/>
<path fill="#EB4141" d="M112.023,330.73c-0.483,2.039-1.829,3.278-3.719,4.018C108.461,332.406,109.692,331.059,112.023,330.73z"/>
<path fill="#EB4141" d="M107.415,323.721c0.805,0.463,1.61,0.926,2.416,1.387c-0.67,0.832-1.495,1.608-2.458,0.654
	C107.039,325.432,107.381,324.419,107.415,323.721z"/>
<path fill="#EB4141" d="M561.864,420.228c-0.232-0.467-0.464-0.933-0.695-1.398c0.688-0.146,1.371-0.291,2.058-0.441
	C562.771,418.995,562.317,419.611,561.864,420.228z"/>
<polygon fill="#EB4141" points="68.243,424.379 67.731,424.537 67.83,424.04 "/>
</svg>
