<?xml version="1.0" encoding="utf-8"?>
<!-- Generator: Adobe Illustrator 16.0.0, SVG Export Plug-In . SVG Version: 6.00 Build 0)  -->
<!DOCTYPE svg PUBLIC "-//W3C//DTD SVG 1.1//EN" "http://www.w3.org/Graphics/SVG/1.1/DTD/svg11.dtd">
<svg version="1.1" id="Your_Icon" xmlns="http://www.w3.org/2000/svg" xmlns:xlink="http://www.w3.org/1999/xlink" x="0px" y="0px"
	 width="100px" height="100px" viewBox="0 0 100 100" enable-background="new 0 0 100 100" xml:space="preserve">
<g>
	<path d="M67.242,35.57c-0.758,0-1.49,0.275-1.984,0.714c-0.5,0.446-0.738,1.056-0.738,1.728v10.442
		c0,1.129-0.551,1.879-1.615,1.879c-1.14,0-1.691-0.75-1.691-1.853V35.256c0-1.348-1.741-2.441-3.285-2.441
		c-0.869,0-2.054,0.67-2.545,1.588c-0.592-0.148-1.221-0.278-1.883-0.388V15.107c0-1.348-1.521-2.44-3.064-2.44
		c-0.77,0-1.551,0.274-2.119,0.714c-0.567,0.445-0.877,1.056-0.877,1.728v18.506c-0.673,0.016-1.332,0.051-1.972,0.103
		c-0.566-0.855-1.798-1.453-2.938-1.453c-1.15,0-2.803,0.997-2.803,2.441v0.112c-0.916,0.31-1.699,0.667-2.315,1.064
		c-0.501-0.524-1.242-0.863-2.093-0.863c-1.024,0-1.961,0.548-2.433,1.339h-0.322v24.085c0,1.815,0.838,3.446,2.125,4.565h24.738
		c0.07-0.043,0.135-0.089,0.188-0.141l8.764-8.124c1.652-1.652,1.652-3.228,1.652-4.195V38.011
		C70.029,36.662,68.761,35.57,67.242,35.57z"/>
	<g>
		<path d="M33.115,67.212v12.121h27.548V67.212H33.115z M37.247,75.477c-1.065,0-1.928-0.863-1.928-1.929
			c0-1.064,0.864-1.928,1.928-1.928c1.065,0,1.928,0.863,1.928,1.928C39.175,74.613,38.312,75.477,37.247,75.477z"/>
	</g>
</g>
</svg>
