<?xml version="1.0" encoding="utf-8"?>
<!-- Generator: Adobe Illustrator 16.0.0, SVG Export Plug-In . SVG Version: 6.00 Build 0)  -->
<!DOCTYPE svg PUBLIC "-//W3C//DTD SVG 1.1//EN" "http://www.w3.org/Graphics/SVG/1.1/DTD/svg11.dtd">
<svg version="1.1" id="Layer_1" xmlns="http://www.w3.org/2000/svg" xmlns:xlink="http://www.w3.org/1999/xlink" x="0px" y="0px"
	 width="612px" height="612px" viewBox="0 0 612 612" enable-background="new 0 0 612 612" xml:space="preserve">
<path fill="#EB4141" d="M599.884,383.845c-2.485-0.842-3.664,3.096-6.877,1.512c-0.012-4.365,1.667-9.473-1.57-13.648
	c-3.954,0.289-2.021,9.63-7.729,5.182c-7.64-5.954-3.511-11.028,4.114-14.837c-2.208-0.731-3.026-1.04-3.865-1.272
	c-12.643-3.497-13.067-4.919-5.104-14.887c11.222-14.048,15.381-29.55,11.015-47.515c-1.648-6.784-10.272-11.532-5.885-20.011
	c0.036-0.068-1.166-1.017-1.879-1.199c-18.424-4.747-25.53-19.958-32.33-35.255c-6.819-15.343-8.184-32.147-12.255-48.23
	c-7.798-30.793-21.568-57.77-49.032-75.885c-1.223-0.806-2.835-1.644-3.318-2.847c-3.871-9.643-11.265-11.414-20.081-8.585
	c-4.936,1.585-6.134-0.327-7.21-4.454c-1.849-7.079-6.19-12.713-11.371-17.77c-11.815-11.531-26.954-16.981-41.776-23.057
	c-26.991-11.063-55.854-15.989-83.284-25.671c-38.761-13.678-77.439-12.843-115.77,2.201c-2.724,1.068-5.649,1.968-8.542,2.205
	c-23.159,1.89-43.73,10.515-62.294,24.077c-10.907,7.968-20.682,17.26-24.388,30.818c-1.298,4.75-3.558,7.536-7.533,10.111
	c-22.521,14.602-38.322,34.706-50.102,58.829c-6.351,13.003-3.989,26.717-7.258,39.825c-2.72,10.914-4.519,22.093-6.074,33.245
	c-0.755,5.407-2.183,10.161-4.961,14.907c-5.991,10.235-8.47,21.277-6.8,33.331c0.839,6.048,2.836,5.812,7.178,1.431
	c-0.053,16.094,2.448,30,11.623,42.377c2.815,3.798,2.53,9.546-4.622,11.355c-10.03,2.537-17.816,8.179-22.669,17.673
	c3.88,2.497,4.979-3.488,8.718-1.476c-2.527,8.88-2.096,18.361-5.062,27.521c-4.17,12.88-0.046,23.933,10.08,32.774
	c1.305,1.14,3.488,3.393,4.343,2.264c3.826-5.065,5.176-0.026,7.224,1.465c6.788,4.939,15.091,11.986,22.169,9.165
	c8.564-3.416,7.45,1.576,7.719,5.224c0.886,12.025,8.078,21.477,12.752,31.835c2.943,6.519,8.618,12.245,17.355,11.848
	c0.52-0.553,1.038-1.108,1.557-1.661c-0.389-2.398-0.777-4.794-1.166-7.19c-1.597-0.931-1.933-2.073-0.587-3.499
	c0.127-3.671,0.01-7.312-1.404-10.784c-1.866-2.852-5.338-5.598-0.596-8.895c0.043-11.09-0.033-22.183,0.263-33.267
	c0.043-1.62-1.727-6.466,3.609-4.11c5.256,1.876,9.968,4.298,10.775,10.667c3.072-0.055,5.177-1.488,6.254-4.389l-0.312,0.174
	c-2.338,0.324-3.628-0.791-4.125-2.999c-10.594-7.259-12.662-18.523-14.092-30.064c-1.056-8.511-1.959-17.041-3.039-25.548
	c-1.062-8.378,0.67-15.862,6.637-22.104c0.156-2.342,1.387-3.689,3.719-4.018c1.056-0.126,2.113-0.251,3.169-0.376
	c1.562-4.862,6.133-4.513,9.831-5.771c3.306-1.125,7.96-0.659,7.991-6.119c-8.321,0.146-16.028,2.432-23.184,6.645
	c-0.67,0.83-1.495,1.606-2.458,0.652c-0.334-0.33,0.008-1.343,0.042-2.042c0.157-11.397,0.314-22.795,0.472-34.19
	c-1.295-1.225-1.202-2.378,0.18-3.466c1.678-22.48,6.644-44.455,10.665-66.548c7.064-38.822,32.803-65.065,68.31-70.005
	c11.986-1.667,24.232-0.588,36.336-2.001c7.288-0.851,7.194-3.325,3.217-8.057c-7.806-9.288-17.596-14.635-29.803-15.721
	c-8.227-0.732-16.615-0.553-24.546-3.462c-4.63-0.696-8.387-2.835-11.08-6.724c-0.302-0.398-0.604-0.795-0.905-1.194
	c0.67-0.043,1.342-0.088,2.012-0.139c3.31,1.596,6.621,3.198,9.931,4.803c8.536,0.966,17.061,2.034,25.609,2.878
	c17.077,1.684,31.873,7.215,40.101,23.709c1.422,2.85,3.363,3.888,6.299,3.793c3.259-0.105,6.528-0.031,9.778-0.254
	c15.816-1.086,18.679-6.373,10.007-20.041c-9.255-14.591-23.657-19.913-40.29-20.306c-10.648-0.252-21.385,0.571-31.762-2.77
	c-4.171-0.583-7.646-2.361-10.111-5.878c-1.187-1-3.864-1.895-2.421-3.52c1.239-1.396,2.79,0.884,3.907,2.078
	c2.835,1.376,5.669,2.754,8.503,4.133c10.218,2.612,20.646,1.756,31.014,1.867c11.7,0.125,23.123,1.503,33.453,7.614
	c10.234,6.056,17.11,14.74,19.27,26.506c0.985,5.367,2.959,7.452,8.241,5.247c0.269-0.111,0.59-0.092,0.868-0.19
	c6.809-2.382,17.593-0.741,19.452-8.108c2.419-9.575-1.898-19.72-8.614-27.801c-2.652-3.192-5.743-5.935-9.543-7.872
	c-1.51-0.77-3.931-1.518-4.562-2.997c-2.024-0.96-3.872-2.206-5.917-3.152c-0.523,0.192-1.137-0.198-1.785-0.669
	c-1.928-0.556-4.007-0.688-6.038-0.855c-6.886-0.19-13.771-0.382-20.657-0.571c-4.122,0.12-8.242,0.24-12.363,0.36
	c-11.08,2.248-21.222-0.05-30.526-6.834c10.073,2.317,20.182,3.927,30.491,3.477c3.7-0.329,7.426-1.403,11.049,0.396
	c6.642-3.285,13.464-2.537,20.302-1.447c0.206-0.024,0.419-0.032,0.647-0.001c3.177,0.439,6.716,0.25,9.71,1.562
	c2.787,1.222,5.232,3.121,8.123,4.104c0.135,0.046,0.254,0.106,0.37,0.168c1.265,0.378,2.592,1.359,3.683,2.027
	c0.003,0,0.006-0.002,0.009-0.002c0.213,0,0.348,0.113,0.421,0.258c11.6,6.62,18.972,16.327,20.815,29.846
	c0.891,6.539,1.774,11.901,11.007,7.275c7.34-3.674,15.695-5.338,23.619-7.832c25.255-7.948,49.49,1.685,62.291,24.744
	c1.635,2.946,6.245,5.718,6.51,6.426c3.51,9.438,16.807,10.684,17.07,23.391c0.676,32.507,18.763,53.739,47.461,66.933
	c1.028,0.474,2.349,0.718,2.116,2.342c-9.162,1.396-18.593-4.026-40.062-23.021c1.629,13.896,18.858,31.531,48.67,49.486
	c-6.835,0.907-12.269-1.346-17.459-3.83c-4.985-2.384-9.622-5.5-15.334-8.833c0.488,13.996-4.733,24.385-15.188,32.172
	c-3.437,2.56-3.491,6.682-4.257,10.418c-2.756,13.473-0.227,26.513,3.265,39.473c-1.215,3.842-3.151,3.92-5.648,1.082
	c-2.255,0.288-4.51,0.576-6.767,0.864c0.268,1.1,0.926,2.539-0.656,2.924c-1.803,0.439-2.461-1.097-2.923-2.549
	c-2.071-0.122-4.176-0.537-6.209-0.315c-8.276,0.895-13.819-0.839-17.885-9.751c-4.315-9.457-14.134-13.933-24.398-16.158
	c-2.163,1.532-3.052,3.71-3.177,6.274c0.463,0.361,0.985,0.519,1.569,0.473c5.627-3.004,8.467,0.404,10.907,4.739
	c0.179,0.335,0.452,0.455,0.82,0.359c2.343,0.025,3.943,1.021,4.476,3.415c1.959,2.923,3.917,5.845,5.874,8.766
	c3.009,1.155,3.316,2.973,1.312,5.356c0.156,1.781,0.316,3.562,0.473,5.343c4.834,5.953,4.9,11.896-0.04,17.827
	c-0.165,3.555-0.332,7.11-0.498,10.664c1.999,2.238,1.892,4.075-1.021,5.383c-0.917,2.928-1.834,5.858-2.749,8.789
	c2.048,2.538,0.288,3.135-1.813,3.555c-2.339,2.852-4.678,5.703-7.014,8.556c-0.38,3.218-2.543,3.986-5.332,3.896
	c0.157,2.69,0.979,4.91,3.982,5.591c14.787-8.173,20.377-21.487,21.007-37.576c-1.781-1.846-1.889-3.61,0.256-5.267
	c0.52-6.05,1.042-12.101,1.562-18.15c9.806-4.282,19.733-7.736,30.644-4.496c1.1-0.16,2.198-0.322,3.296-0.482
	c2.533-4.872,4.874-4.955,6.998,0.284c2.332,4.67,6.027,8.269,10.389,10.728c6.107,3.441,8.679,6.676,3.899,13.538
	c-3.367,4.836-3.815,11.065-3.861,17.131c-0.104,14.058,10.753,23.036,15.752,34.713c0.17,0.396,0.991,0.514,1.513,0.756
	c2.396-2.031,1.711-6.501,6.022-7.354c4.702,7.232,5.583,15.585,6.014,25.129c5.726-4,8.463-8.468,10.787-13.243
	c6.739-13.853,7.635-28.494,5.58-43.457c-1.165-8.5-3.455-16.833-2.77-25.57c1.148-14.61,10.271-21.959,24.609-18.812
	c4.282,0.939,5.873-0.288,7.287-3.868c2.51-6.354,2.255-13.003,2.511-19.701c5.471,7.378,4.882,15.581,2.503,23.391
	c-1.794,5.89,2.284,7.577,5.34,9.737c4.24,2.996,5.502-1.852,7.23-4.004c6.371-7.937,9.383-17.151,8.74-27.61
	c4.501,8.543,4.278,17.363-0.092,24.804c-5.951,10.136-5.625,18.949-3.569,30.682c3.771,21.533-3.41,42.521-17.31,59.808
	c-7.866,9.778-13.279,19.891-15.963,32.156c-3.884,17.771-13.637,33.467-31.229,38.151c-15.925,4.239-21.352,13.811-25.202,27.216
	c-1.796,6.251-4.479,12.25-6.843,18.331c-1.194,3.071-2.496,6.209-1.812,9.485c1.17,5.611-2.357,15.322,2.411,16.133
	c7.375,1.252,14.246-5.075,17.302-12.811c1.609-4.078,3.815-4.183,7.472-3.754c23.976,2.806,31.809-3.44,33.525-26.385
	c3.584,0.164,1.3,5.786,5.415,5.756c4.15-7.578,5.141-15.714,4.539-24.097c-0.244-3.427,0.66-5.415,3.332-8.161
	c11.473-11.796,22.392-24.158,33.025-36.727c3.203-3.786,4.012-9.138,4.84-14.181c2.297-14.004-1.344-27.064-6.015-39.992
	c-0.232-0.467-0.464-0.933-0.695-1.399c0.687-0.146,1.371-0.291,2.058-0.441c4.948,0.814,7.211,5.671,11.648,8.296
	c1.666-5.878-1.692-10.167-2.933-14.757C590.126,405.27,604.536,390.749,599.884,383.845z M67.731,424.537l0.098-0.497l0.414,0.339
	L67.731,424.537z"/>
<path fill-rule="evenodd" clip-rule="evenodd" fill="#EB4141" d="M374.959,319.013c-2.163,1.532-3.052,3.71-3.177,6.274
	c-23.801-5.256-47.78-3.857-71.739-1.703c-5.561,0.499-11.167,1.74-16.482,3.47c-11.974,3.896-16.322,9.852-15.889,22.533
	c0.653,19.121,6.404,36.753,17.511,52.419c5.113,7.209,11.752,12.976,20.798,14.157c24.448,3.192,48.967,6.138,72.762-3.81
	c0.149,2.715,0.964,4.959,3.987,5.645c-7.533,6.106-16.717,7.561-25.839,8.304c-13.908,1.135-27.863,0.367-41.797-0.402
	c-27.979-1.541-40.594-20.439-49.108-43.635c-3.366-9.166-6.019-18.714-6.301-28.587c-0.154-5.42-2.569-7.467-7.621-7.303
	c-0.885,0.029-1.774-0.143-2.662-0.193c-23.156-1.307-23.257-1.294-26.88,21.135c-2.241,13.877-5.891,27.225-13.171,39.411
	c-6.311,10.566-15.212,17.382-27.567,18.971c-15.898,2.042-31.845,3.886-47.844,1.026c-6.129-1.095-12.237-2.471-16.963-7.047
	c3.075-0.053,5.182-1.486,6.259-4.387c18.131,7.373,36.798,4.603,55.388,2.832c11.24-1.069,19.198-7.011,24.63-16.822
	c8.246-14.893,11.931-30.988,12.372-47.794c0.412-15.761-5.431-23.9-21.03-25.8c-26.483-3.223-53.198-5.807-79.403,2.647
	c1.562-4.862,6.133-4.513,9.831-5.771c3.306-1.125,7.96-0.659,7.991-6.119c4.408-0.484,8.84-1.541,13.219-1.354
	c24.913,1.074,49.748-0.996,74.619-1.481c37.042-0.72,74.088-1.419,111.135-1.89C346.506,313.557,361.099,313.494,374.959,319.013z
	 M273.363,321.646c-22.132,0.416-42.056,0.146-61.107,2c5.672,15.364,16.808,17.414,31.262,15.725
	c9.362-1.095,18.682,1.288,22.557-10.676C266.785,326.506,269.741,325.042,273.363,321.646z"/>
<path fill-rule="evenodd" clip-rule="evenodd" fill="#D42117" d="M405.555,357.005c9.806-4.282,19.733-7.736,30.644-4.496
	C426.115,354.897,416.054,357.447,405.555,357.005z"/>
<path fill-rule="evenodd" clip-rule="evenodd" fill="#D42117" d="M106.207,409.011c5.257,1.876,9.97,4.299,10.775,10.67
	C112.062,417.466,108.431,413.949,106.207,409.011z"/>
<path fill-rule="evenodd" clip-rule="evenodd" fill="#D42117" d="M102.931,455.282c-1.866-2.852-5.338-5.598-0.596-8.895
	C102.534,449.353,102.732,452.316,102.931,455.282z"/>
<path fill-rule="evenodd" clip-rule="evenodd" fill="#D42117" d="M439.494,352.026c2.533-4.872,4.874-4.955,6.998,0.284
	C444.161,352.216,441.828,352.12,439.494,352.026z"/>
<path fill-rule="evenodd" clip-rule="evenodd" fill="#D42117" d="M403.736,380.422c-1.781-1.846-1.889-3.61,0.256-5.267
	C404.557,376.944,404.676,378.708,403.736,380.422z"/>
<path fill-rule="evenodd" clip-rule="evenodd" fill="#D42117" d="M104.531,478.417c0.52-0.553,1.038-1.108,1.557-1.661
	c0.761,0.824,1.298,1.765,0.422,2.721C106.385,479.612,105.217,478.795,104.531,478.417z"/>
<path fill-rule="evenodd" clip-rule="evenodd" fill="#D42117" d="M104.922,469.565c-1.597-0.931-1.933-2.073-0.587-3.499
	C104.531,467.232,104.727,468.4,104.922,469.565z"/>
<path fill-rule="evenodd" clip-rule="evenodd" fill="#D42117" d="M397.174,371.565c0.015-5.942,0.026-11.885,0.04-17.827
	C402.048,359.691,402.114,365.634,397.174,371.565z"/>
<path fill-rule="evenodd" clip-rule="evenodd" fill="#D42117" d="M384.259,330.499c-3.636-1.58-7.271-3.159-10.907-4.739
	C378.979,322.756,381.818,326.164,384.259,330.499z"/>
<path fill-rule="evenodd" clip-rule="evenodd" fill="#D42117" d="M433.797,343.998c1.884-0.36,3.766-0.723,5.648-1.082
	C438.23,346.758,436.294,346.836,433.797,343.998z"/>
<path fill-rule="evenodd" clip-rule="evenodd" fill="#D42117" d="M395.655,387.612c0.339-1.794,0.679-3.589,1.021-5.383
	C398.675,384.468,398.567,386.305,395.655,387.612z"/>
<path fill-rule="evenodd" clip-rule="evenodd" fill="#D42117" d="M396.741,348.396c-0.439-1.786-0.873-3.571-1.312-5.356
	C398.438,344.194,398.745,346.012,396.741,348.396z"/>
<path fill-rule="evenodd" clip-rule="evenodd" fill="#D42117" d="M378.729,412.407c1.783-1.298,3.566-2.596,5.351-3.896
	C383.698,411.736,381.526,412.502,378.729,412.407z"/>
<path fill-rule="evenodd" clip-rule="evenodd" fill="#D42117" d="M423.451,345.237c1.193-0.126,2.385-0.249,3.579-0.375
	c0.268,1.1,0.926,2.539-0.656,2.924C424.571,348.226,423.913,346.689,423.451,345.237z"/>
<path fill-rule="evenodd" clip-rule="evenodd" fill="#D42117" d="M391.093,399.956c0.604-1.186,1.208-2.37,1.813-3.555
	C394.954,398.939,393.194,399.536,391.093,399.956z"/>
<path fill-rule="evenodd" clip-rule="evenodd" fill="#D42117" d="M118.798,412.464c1.374,1,2.746,2.002,4.122,3.001
	C120.586,415.787,119.296,414.672,118.798,412.464z"/>
<path fill-rule="evenodd" clip-rule="evenodd" fill="#D42117" d="M108.066,286.063c-0.06,1.155-0.12,2.311-0.18,3.466
	C106.591,288.305,106.684,287.151,108.066,286.063z"/>
<path fill-rule="evenodd" clip-rule="evenodd" fill="#D42117" d="M389.555,334.273c-1.489-1.137-2.979-2.275-4.472-3.413
	C387.422,330.884,389.022,331.879,389.555,334.273z"/>
<path fill-rule="evenodd" clip-rule="evenodd" fill="#D42117" d="M112.023,330.73c-0.483,2.039-1.829,3.279-3.719,4.018
	C108.461,332.406,109.692,331.059,112.023,330.73z"/>
<path fill-rule="evenodd" clip-rule="evenodd" fill="#D42117" d="M107.415,323.72c0.805,0.463,1.61,0.926,2.416,1.388
	c-0.67,0.832-1.495,1.608-2.458,0.654C107.039,325.432,107.381,324.419,107.415,323.72z"/>
<path fill-rule="evenodd" clip-rule="evenodd" fill="#F3CA01" d="M561.864,420.228c-0.232-0.467-0.464-0.933-0.695-1.399
	c0.687-0.146,1.371-0.291,2.058-0.441C562.772,418.995,562.317,419.611,561.864,420.228z"/>
<polygon fill-rule="evenodd" clip-rule="evenodd" fill="#F3CA01" points="68.243,424.379 67.731,424.537 67.83,424.04 "/>
</svg>
